# xmcd
#
# Track frame offsets:
#	150
#	15864
#	26467
#	37937
#	58168
#	72359
#	88807
#	101797
#	114959
#	128715
#	141329
#	154509
#	170766
#	188571
#	202521
#	217695
#	229321
#	240545
#
# Disc length: 3392
#
# Revision: 4
# Processed by: cddbd v1.5.1PL0 Copyright (c) Steve Scherf et al.
# Submitted via: OrangeCD 5.2
# Normalized: r3:DSETVAR1
#
DISCID=e30d3e12
DTITLE=Various Artist - The Best Line Dancing Album In The World Ever! [CD2]
DYEAR=2004
DGENRE=Country
TTITLE0=Asleep At The Wheel - Hubbin' It
TTITLE1=Pirates Of The Mississippi - Pop From The Top
TTITLE2=Linda Davies - Do I Do It To You Too
TTITLE3=Steve Wariner - Two Teardrops
TTITLE4=George Ducas - In No Time At All
TTITLE5=Keith Urban - Its A Love Thing
TTITLE6=Julie Reeves - Party Down
TTITLE7=Deana Carter - If This Is Love
TTITLE8=Chris Cagle - Rock The Boat
TTITLE9=Glen Campbell - Southern Nights
TTITLE10=Trace Adkins - See Jane Run
TTITLE11=Olsen Brothers - Maria Maria
TTITLE12=Roy Orbison - California Blue
TTITLE13=Glen Campbell - Country Boy
TTITLE14=Eddy Raven - Zydeco Lady
TTITLE15=Billy Crash Craddock - Sea Cruise
TTITLE16=Shenandoh - Darned If I Don't (Danged If I Do)
TTITLE17=George Ducas - Teardrops
EXTD=
EXTT0=
EXTT1=
EXTT2=
EXTT3=
EXTT4=
EXTT5=
EXTT6=
EXTT7=
EXTT8=
EXTT9=
EXTT10=
EXTT11=
EXTT12=
EXTT13=
EXTT14=
EXTT15=
EXTT16=
EXTT17=
PLAYORDER=
